<?xml version="1.0" standalone="no"?>
<!DOCTYPE svg PUBLIC "-//W3C//DTD SVG 20010904//EN"
 "http://www.w3.org/TR/2001/REC-SVG-20010904/DTD/svg10.dtd">
<svg version="1.0" xmlns="http://www.w3.org/2000/svg"
 width="801.000000pt" height="801.000000pt" viewBox="0 0 801.000000 801.000000"
 preserveAspectRatio="xMidYMid meet">
<metadata>
Created by potrace 1.14, written by Peter Selinger 2001-2017
</metadata>
<g transform="translate(0.000000,801.000000) scale(0.100000,-0.100000)"
fill="#000000" stroke="none">
<path d="M1038 7645 c-2 -1 -30 -6 -63 -10 -32 -3 -62 -8 -65 -10 -4 -2 -17
-6 -31 -8 -43 -8 -179 -57 -232 -83 -141 -71 -306 -205 -399 -324 -83 -106
-185 -311 -202 -403 -3 -15 -7 -35 -10 -45 -10 -32 -17 -77 -23 -147 -9 -93
-9 -3583 0 -3660 12 -112 45 -241 77 -308 11 -22 20 -44 20 -48 0 -15 85 -157
128 -212 54 -71 130 -149 197 -203 46 -37 297 -211 398 -276 23 -14 47 -30 52
-35 6 -4 60 -41 120 -82 113 -76 250 -170 435 -296 126 -86 332 -226 530 -360
145 -98 230 -156 495 -337 432 -294 488 -326 646 -372 129 -37 233 -49 372
-43 67 3 136 8 152 12 17 3 50 11 75 16 58 12 169 54 242 90 l56 28 44 -22
c95 -51 235 -98 333 -112 22 -4 51 -8 65 -11 82 -14 282 0 418 30 43 9 146 49
215 82 l69 33 67 -33 c164 -83 315 -115 521 -112 80 2 155 5 166 9 12 3 39 8
60 11 56 9 205 62 269 96 l56 29 77 -36 c135 -64 203 -84 367 -108 43 -7 217
-7 250 -1 11 2 42 7 70 11 205 29 448 152 602 302 142 139 234 287 299 481 52
155 51 114 49 2082 -1 1009 -5 1849 -8 1866 -44 235 -145 442 -295 605 -91 99
-58 75 -852 614 -135 91 -312 212 -395 268 -82 57 -252 172 -378 257 -125 85
-296 202 -380 259 -612 417 -642 434 -848 487 -91 24 -124 27 -264 28 -100 1
-180 -4 -215 -12 -110 -27 -197 -56 -279 -94 l-85 -38 -65 31 c-36 18 -96 42
-132 55 -61 21 -86 28 -184 49 -57 13 -290 12 -370 0 -97 -16 -239 -62 -325
-105 l-63 -32 -86 40 c-172 81 -308 110 -503 107 -192 -3 -321 -33 -485 -111
l-72 -35 -50 26 c-156 79 -312 117 -493 120 -75 2 -138 2 -140 0z m2567 -1430
c395 -268 474 -322 529 -364 205 -155 364 -406 415 -653 6 -29 14 -64 18 -78
6 -25 13 -3420 7 -3420 -2 0 -47 31 -101 68 -54 38 -197 135 -318 217 -305
206 -353 244 -446 355 -121 145 -222 349 -245 495 -3 22 -8 43 -9 46 -15 23
-18 352 -19 1801 -1 1095 2 1644 9 1640 6 -3 78 -51 160 -107z"/>
</g>
</svg>
